# xmcd
#
# Track frame offsets:
#	150
#	13371
#	29492
#	46052
#	61622
#	76418
#	92233
#	105248
#	120699
#	139463
#	153054
#
# Disc length: 2306 seconds
#
# Revision: 1
# Processed by: cddbd v1.5.2PL0 Copyright (c) Steve Scherf et al.
# Submitted via: audiograbber 1.83.01
#
DISCID=8409000b
DTITLE=Kenny Chesney - Cosmic Hallelujah
DYEAR=2016
DGENRE=Country
TTITLE0=Trip Around the Sun
TTITLE1=All the Pretty Girls
TTITLE2=Setting the World On Fire
TTITLE3=Noise
TTITLE4=Bucket
TTITLE5=Bar at the End of the World
TTITLE6=Some Town Somewhere
TTITLE7=Rich and Miserable
TTITLE8=Jesus and Elvis
TTITLE9=Winnebago
TTITLE10=Coach
EXTD=
EXTT0=
EXTT1=
EXTT2=
EXTT3=
EXTT4=
EXTT5=
EXTT6=
EXTT7=
EXTT8=
EXTT9=
EXTT10=
PLAYORDER=
